# xmcd
#
# Track frame offsets: 
#        150
#        10142
#        20422
#        32822
#        44300
#        53445
#        65172
#        76380
#        90405
#        102240
#        114012
#        127277
#        137515
#        146277
#        160307
#        171757
#        181507
#        193555
#        208157
#        218525
#        234750
#
# Disc length: 3233 seconds
#
# Revision: 0
# Processed by: cddbd v1.5.1PL0 Copyright (c) Steve Scherf et al.
# Submitted via: ExactAudioCopy v0.95a5
#
DISCID=0b0c9f15
DTITLE=Okeh Wranglers - Beneath The Western Skies
DYEAR=1996
DGENRE=Western
TTITLE0=Since She's Been Away
TTITLE1=Don't Let The Stars Get In Your Eyes
TTITLE2=Midnight Rambler
TTITLE3=You're Gonna Want Me
TTITLE4=A Peck And A Bushel
TTITLE5=Beneath The Western Skies
TTITLE6=Roll Back Home To Me
TTITLE7=Well Oh Well
TTITLE8=I'll Never Be Free
TTITLE9=Gonna Pick Up The Pieces
TTITLE10=Still A Loser Over You
TTITLE11=Can't Take This Double Talk Nohow
TTITLE12=Hot Dang
TTITLE13=Blues On My Mind
TTITLE14=Window Sneaking Mama
TTITLE15=Raining And Crying Are 'Bout Over
TTITLE16=Alnico Jump Boogie
TTITLE17=Sure Have Got The Miseries Hanging Over Me
TTITLE18=Turning The Tables
TTITLE19=Keep Right On Traveling
TTITLE20=The Call Of The Canyon
EXTD=
EXTT0=
EXTT1=
EXTT2=
EXTT3=
EXTT4=
EXTT5=
EXTT6=
EXTT7=
EXTT8=
EXTT9=
EXTT10=
EXTT11=
EXTT12=
EXTT13=
EXTT14=
EXTT15=
EXTT16=
EXTT17=
EXTT18=
EXTT19=
EXTT20=
PLAYORDER=
